<svg width="32" height="32" viewBox="0 0 32 32" fill="none" xmlns="http://www.w3.org/2000/svg">
<path d="M23 20.515C23 15.9 19.22 15.374 16.183 14.952C12.873 14.492 11 14.092 11 11.242C11 8.85 13.507 8 15.654 8C16.7239 7.96544 17.7868 8.18569 18.7549 8.64262C19.723 9.09954 20.5686 9.78004 21.222 10.628L22.778 9.372C22.0783 8.47217 21.2076 7.71952 20.216 7.1573C19.2244 6.59509 18.1314 6.23441 17 6.096V3H15V6.022C11.385 6.242 9 8.282 9 11.242C9 15.972 12.83 16.505 15.907 16.932C19.16 17.385 21 17.774 21 20.515C21 23.547 17.867 24 16 24C12.57 24 11.122 23.036 9.778 21.372L8.222 22.628C9.01476 23.6727 10.0401 24.5182 11.2167 25.0975C12.3932 25.6767 13.6886 25.9737 15 25.965V29H17V25.955C20.726 25.651 23 23.628 23 20.515Z" fill="white"/>
</svg>
